<svg xmlns="http://www.w3.org/2000/svg">
    <symbol id="icon-html" viewBox="0 0 256 256">
        <title>HTML Icon</title>
        <g fill="none">
            <rect width="256" height="256" fill="#e14e1d" rx="60" />
            <path fill="#fff"
                d="m48 38l8.61 96.593h110.71l-3.715 41.43l-35.646 9.638l-35.579-9.624l-2.379-26.602H57.94l4.585 51.281l65.427 18.172l65.51-18.172l8.783-98.061H85.824l-2.923-32.71h122.238L208 38z" />
            <path fill="#ebebeb"
                d="M128 38H48l8.61 96.593H128v-31.938H85.824l-2.923-32.71H128zm0 147.647l-.041.014l-35.579-9.624l-2.379-26.602H57.94l4.585 51.281l65.427 18.172l.049-.014z" />
        </g>
    </symbol>

    <symbol id="icon-css" viewBox="0 0 256 256">
        <title>CSS Icon</title>
        <g fill="none">
            <rect width="256" height="256" fill="#0277bd" rx="60" />
            <path fill="#ebebeb"
                d="m53.753 102.651l2.862 31.942h71.481v-31.942zM128.095 38H48l2.904 31.942h77.191zm0 180.841v-33.233l-.14.037l-35.574-9.605l-2.274-25.476H58.042l4.475 50.154l65.431 18.164z" />
            <path fill="#fff"
                d="m167.318 134.593l-3.708 41.426l-35.625 9.616v33.231l65.483-18.148l.48-5.397l7.506-84.092l.779-8.578L208 38h-80.015v31.942h45.009l-2.906 32.709h-42.103v31.942z" />
        </g>
    </symbol>

    <symbol id="icon-javascript" viewBox="0 0 256 256">
        <title>Javascript Icon</title>
        <g fill="none">
            <rect width="256" height="256" fill="#f0db4f" rx="60" />
            <path fill="#323330" d="m67.312 213.932l19.59-11.856c3.78 6.701 7.218 12.371 15.465 12.371c7.905 0 12.889-3.092 12.889-15.12v-81.798h24.058v82.138c0 24.917-14.606 36.259-35.916 36.259c-19.245 0-30.416-9.967-36.087-21.996m85.07-2.576l19.588-11.341c5.157 8.421 11.859 14.607 23.715 14.607c9.969 0 16.325-4.984 16.325-11.858c0-8.248-6.53-11.17-17.528-15.98l-6.013-2.579c-17.357-7.388-28.871-16.668-28.871-36.258c0-18.044 13.748-31.792 35.229-31.792c15.294 0 26.292 5.328 34.196 19.247l-18.731 12.029c-4.125-7.389-8.591-10.31-15.465-10.31c-7.046 0-11.514 4.468-11.514 10.31c0 7.217 4.468 10.139 14.778 14.608l6.014 2.577c20.449 8.765 31.963 17.699 31.963 37.804c0 21.654-17.012 33.51-39.867 33.51c-22.339 0-36.774-10.654-43.819-24.574" />
        </g>
    </symbol>

    <symbol id="icon-nodejs" viewBox="0 0 256 256">
        <title>Node.js Icon</title>
        <g fill="none">
            <rect width="256" height="256" fill="#f4f2ed" rx="60" />
            <path fill="#81cd39"
                d="M119.878 31.116c4.919-2.815 11.325-2.828 16.239 0c24.722 13.97 49.452 27.917 74.17 41.895c4.65 2.619 7.759 7.793 7.712 13.15v84.045c.035 5.579-3.382 10.877-8.287 13.436c-24.641 13.893-49.27 27.802-73.907 41.695c-5.019 2.87-11.554 2.649-16.418-.457c-7.387-4.282-14.787-8.544-22.175-12.822c-1.51-.9-3.212-1.616-4.278-3.08c.943-1.27 2.628-1.428 3.997-1.983c3.083-.981 5.916-2.555 8.748-4.082c.717-.49 1.591-.302 2.278.136c6.317 3.622 12.579 7.35 18.917 10.937c1.352.781 2.721-.256 3.877-.9c24.18-13.667 48.39-27.281 72.567-40.952c.896-.431 1.391-1.382 1.318-2.363c.017-27.725.004-55.454.009-83.18c.102-1.112-.542-2.136-1.549-2.592c-24.555-13.829-49.099-27.678-73.65-41.51a2.56 2.56 0 0 0-2.892-.005c-24.552 13.837-49.09 27.7-73.642 41.527c-1.003.457-1.676 1.464-1.557 2.58c.005 27.726 0 55.455 0 83.184a2.35 2.35 0 0 0 1.336 2.334c6.551 3.715 13.111 7.404 19.667 11.107c3.694 1.987 8.228 3.169 12.298 1.646c3.59-1.288 6.107-4.953 6.039-8.765c.034-27.563-.017-55.13.025-82.69c-.09-1.223 1.071-2.234 2.261-2.118c3.148-.022 6.3-.043 9.448.008c1.314-.03 2.218 1.288 2.056 2.52c-.013 27.738.034 55.476-.021 83.213c.008 7.393-3.029 15.437-9.867 19.054c-8.423 4.363-18.835 3.438-27.157-.746c-7.204-3.596-14.08-7.84-21.156-11.692c-4.918-2.545-8.318-7.864-8.283-13.439V86.161c-.052-5.468 3.182-10.736 7.975-13.317c24.637-13.903 49.27-27.818 73.902-41.728" />
            <path fill="#81cd39"
                d="M141.372 89.335c10.745-.692 22.248-.41 31.917 4.884c7.487 4.056 11.637 12.57 11.769 20.887c-.209 1.121-1.382 1.74-2.453 1.663c-3.117-.004-6.236.043-9.353-.021c-1.323.051-2.091-1.168-2.257-2.337c-.896-3.98-3.067-7.921-6.812-9.841c-5.75-2.878-12.416-2.733-18.687-2.673c-4.576.242-9.498.639-13.376 3.33c-2.977 2.039-3.881 6.155-2.819 9.47c1.002 2.38 3.749 3.148 5.997 3.856c12.95 3.387 26.672 3.049 39.373 7.506c5.26 1.817 10.404 5.35 12.204 10.856c2.355 7.38 1.323 16.2-3.928 22.124c-4.258 4.875-10.459 7.529-16.644 8.97c-8.228 1.835-16.767 1.882-25.123 1.067c-7.857-.896-16.034-2.96-22.099-8.313c-5.187-4.504-7.72-11.522-7.469-18.294c.06-1.144 1.199-1.942 2.295-1.848c3.139-.025 6.279-.034 9.418.005c1.254-.09 2.184.994 2.248 2.176c.579 3.791 2.004 7.771 5.31 10.018c6.381 4.117 14.388 3.835 21.694 3.95c6.052-.268 12.847-.349 17.787-4.35c2.606-2.282 3.378-6.1 2.674-9.384c-.763-2.773-3.664-4.065-6.155-4.91c-12.783-4.043-26.659-2.576-39.318-7.149c-5.14-1.816-10.11-5.25-12.084-10.53c-2.755-7.473-1.493-16.717 4.308-22.44c5.656-5.695 13.82-7.888 21.583-8.672" />
        </g>
    </symbol>

    <symbol id="icon-bootstrap" viewBox="0 0 256 256">
        <title>Bootstrap Icon</title>
        <g fill="none">
            <rect width="256" height="256" fill="url(#skillIconsBootstrap0)" rx="60" />
            <g filter="url(#skillIconsBootstrap2)">
                <path fill="url(#skillIconsBootstrap1)" d="M131.97 196.157c29.676 0 47.559-14.531 47.559-38.497c0-18.117-12.759-31.232-31.706-33.309v-.754c13.92-2.265 24.843-15.192 24.843-29.628c0-20.57-16.239-33.969-40.986-33.969H76v136.157zM97.653 77.267h28.807c15.66 0 24.553 6.983 24.553 19.627c0 13.493-10.343 21.041-29.096 21.041H97.653zm0 101.623v-44.819h28.613c20.494 0 31.127 7.548 31.127 22.268c0 14.719-10.343 22.551-29.87 22.551z" />
                <path stroke="#fff" stroke-width="2" d="M131.97 196.157c29.676 0 47.559-14.531 47.559-38.497c0-18.117-12.759-31.232-31.706-33.309v-.754c13.92-2.265 24.843-15.192 24.843-29.628c0-20.57-16.239-33.969-40.986-33.969H76v136.157zM97.653 77.267h28.807c15.66 0 24.553 6.983 24.553 19.627c0 13.493-10.343 21.041-29.096 21.041H97.653zm0 101.623v-44.819h28.613c20.494 0 31.127 7.548 31.127 22.268c0 14.719-10.343 22.551-29.87 22.551z" />
            </g>
            <defs>
                <linearGradient id="skillIconsBootstrap0" x1="0" x2="256" y1="0" y2="256" gradientUnits="userSpaceOnUse">
                    <stop stop-color="#9013fe" />
                    <stop offset="1" stop-color="#6b11f4" />
                </linearGradient>
                <linearGradient id="skillIconsBootstrap1" x1="85.793" x2="148.541" y1="68.962" y2="175.084" gradientUnits="userSpaceOnUse">
                    <stop stop-color="#fff" />
                    <stop offset="1" stop-color="#f1e5fc" />
                </linearGradient>
                <filter id="skillIconsBootstrap2" width="137.529" height="170.157" x="59" y="47" color-interpolation-filters="sRGB" filterUnits="userSpaceOnUse">
                    <feFlood flood-opacity="0" result="BackgroundImageFix" />
                    <feColorMatrix in="SourceAlpha" result="hardAlpha" values="0 0 0 0 0 0 0 0 0 0 0 0 0 0 0 0 0 0 127 0" />
                    <feOffset dy="4" />
                    <feGaussianBlur stdDeviation="8" />
                    <feColorMatrix values="0 0 0 0 0 0 0 0 0 0 0 0 0 0 0 0 0 0 0.15 0" />
                    <feBlend in2="BackgroundImageFix" result="effect1_dropShadow_158_100" />
                    <feBlend in="SourceGraphic" in2="effect1_dropShadow_158_100" result="shape" />
                </filter>
            </defs>
        </g>
    </symbol>

    <symbol id="icon-react" viewBox="0 0 256 256">
        <title>React Icon</title>
        <g fill="none">
            <rect width="256" height="256" fill="#f4f2ed" rx="60" />
            <path fill="#00d8ff" d="M128.001 146.951c10.304 0 18.656-8.353 18.656-18.656s-8.352-18.656-18.656-18.656s-18.656 8.353-18.656 18.656s8.353 18.656 18.656 18.656" />
            <path stroke="#00d8ff" stroke-width="8.911" d="M128.002 90.363c25.048 0 48.317 3.594 65.862 9.635C215.003 107.275 228 118.306 228 128.295c0 10.409-13.774 22.128-36.475 29.649c-17.162 5.686-39.746 8.654-63.523 8.654c-24.378 0-47.463-2.786-64.819-8.717C41.225 150.376 28 138.506 28 128.295c0-9.908 12.41-20.854 33.252-28.12c17.61-6.14 41.453-9.812 66.746-9.812z" clip-rule="evenodd" />
            <path stroke="#00d8ff" stroke-width="8.911" d="M94.981 109.438c12.514-21.698 27.251-40.06 41.249-52.24c16.864-14.677 32.914-20.425 41.566-15.436c9.017 5.2 12.288 22.988 7.463 46.41c-3.645 17.707-12.359 38.753-24.238 59.351c-12.179 21.118-26.124 39.724-39.931 51.792c-17.471 15.272-34.362 20.799-43.207 15.698c-8.583-4.946-11.865-21.167-7.747-42.852c3.479-18.323 12.21-40.812 24.841-62.723z" clip-rule="evenodd" />
            <path stroke="#00d8ff" stroke-width="8.911" d="M95.012 147.578c-12.549-21.674-21.093-43.616-24.659-61.826c-4.293-21.941-1.258-38.716 7.387-43.72c9.009-5.216 26.052.834 43.934 16.712c13.52 12.004 27.403 30.061 39.316 50.639c12.214 21.098 21.368 42.473 24.929 60.461c4.506 22.764.859 40.157-7.978 45.272c-8.574 4.964-24.265-.291-40.996-14.689c-14.136-12.164-29.26-30.959-41.933-52.849Z" clip-rule="evenodd" />
        </g>
    </symbol>

    <symbol id="icon-express" viewBox="0 0 256 256">
        <title>Express Icon</title>
        <g fill="none">
            <rect width="256" height="256" fill="#f4f2ed" rx="60" />
            <path fill="#0f0f0f" d="M228 182.937a12.73 12.73 0 0 1-15.791-6.005c-9.063-13.567-19.071-26.522-28.69-39.755l-4.171-5.56c-11.454 15.346-22.908 30.08-33.361 45.371a12.23 12.23 0 0 1-15.012 5.894l42.98-57.659l-39.978-52.1a13.29 13.29 0 0 1 15.847 5.56c9.285 13.568 19.572 26.523 29.802 40.257c10.287-13.623 20.462-26.634 29.97-40.09a11.95 11.95 0 0 1 14.901-5.56l-15.513 20.573c-6.95 9.174-13.789 18.404-21.017 27.356a5.56 5.56 0 0 0 0 8.285c13.289 17.626 26.466 35.307 40.033 53.433M28 124.5c1.168-5.56 1.89-11.621 3.503-17.292c9.619-34.195 48.818-48.43 75.785-27.245c15.791 12.4 19.739 29.97 18.961 49.764H37.286c-1.446 35.363 24.075 56.714 56.713 45.816a33.86 33.86 0 0 0 21.518-23.965c1.724-5.56 4.504-6.505 9.786-4.893a45.15 45.15 0 0 1-21.573 32.972a52.26 52.26 0 0 1-60.884-7.784a54.77 54.77 0 0 1-13.678-32.138c0-1.89-.723-3.781-1.112-5.56A861 861 0 0 1 28 124.5m9.397-2.391h80.456c-.501-25.632-16.681-43.814-38.254-43.98c-24.02-.334-41.201 17.458-42.258 43.869z" />
        </g>
    </symbol>

    <symbol id="icon-flask" viewBox="0 0 256 256">
        <title>Flask Icon</title>
        <g fill="none">
            <rect width="256" height="256" fill="#f4f2ed" rx="60" />
            <path fill="#000" d="M89.778 193.926c-7.238-5.693-14.96-11.151-20.235-18.837c-11.102-13.554-19.65-29.247-25.494-45.737c-3.532-10.724-4.741-22.22-9.295-32.53c-4.763-7.487.817-15.671 9.018-18.051c3.651-.701 10.072-4.145 2.322-1.684c-6.948 5.098-7.62-4.627-.496-5.243c4.862-.646 6.652-4.627 4.99-8.21c-5.22-3.404 12.656-7.145 3.662-12.223c-9.37-10.11 13.106-12.055 7.56-.575c-1.327 8.829 15.706-1.618 11.754 8.577c4.017 4.896 15.042 1.114 14.768 7.983c5.852.402 7.86 5.325 13.353 5.703c5.693 2.571 16.013 4.597 17.95 11.012c-5.648 4.472-18.726-9.236-19.355 3.141c1.706 18.285 1.272 37.121 7.962 54.533c3.164 10.543 10.835 18.843 17.762 27.054c6.629 8.042 15.607 13.704 24.758 18.471c8.028 3.786 16.682 6.297 25.431 7.872c3.548-2.714 9.813-12.804 15.349-8.549c.262 4.781-10.987 9.994-.53 9.465c6.141-1.852 10.4 4.75 15.457-1.205c4.659 5.518 19.364-3.526 16.049 7.754c-4.482 2.892-11.02 1.144-15.509 5.122c-7.403-3.697-13.296 3.309-21.491 2.423c-9.101 1.63-18.36 2.288-27.587 2.302c-15.137-1.196-30.595-1.7-44.995-6.97c-8.112-2.357-16.029-6.977-23.158-11.598m12.784 5.539c7.921 3.426 15.667 7.036 24.348 8.125c13.773 1.916 27.996 4.862 41.818 2.175c-6.256-2.825-12.723 1.1-18.956-2.02c-7.474 1.608-15.496-.41-23.094-1.404c-8.642-3.849-17.967-6.495-26.059-11.492c-10.112-3.693 5.229 4.737 7.96 5.419c6.321 3.588-6.951-1.839-8.822-3.33c-5.294-2.97-5.969-2.349-.524.667c1.096.641 2.18 1.314 3.329 1.86m-15.073-10.652c7.676 2.844-.034-5.397-3.551-4.919c-1.559-2.703-5.954-4.411-2.853-5.864c-5.578 1.937-5.843-7.363-8.465-6.034c-5.9-1.863-2.296-8.464-9.325-12.517c-.642-4.271-6.983-7.975-9.006-14.417c-.893-3.298-7.164-12.77-3.312-3.955c3.28 8.486 9.051 15.753 13.854 23.011c3.73 6.911 8.133 14.134 14.925 18.446c2.29 2.196 4.5 5.561 7.733 6.249m-22.113-24.278c.268-1.159 1.404 2.509 0 0m31.306 27.687c1.7-.761-2.445-.959 0 0m4.167 1.52c-.432-2.099-1.903 1.173 0 0m5.215 2.175c2.483-2.364-3.827-1.49 0 0m8.94 4.983c1.509-2.231-4.83-.842 0 0m-17.166-11.967c3.856-2.495-4.982-.034 0 0m3.912 1.951c-.109-1.319-1.394.591 0 0m19.556 12.206c3.143 1.984 18.357 4.348 8.831.813c-1.594.336-17.665-4.545-8.831-.813m-31.045-24.179c-.306-1.323-4.88-1.46 0 0m9.104 5.306c2.369-1.652-4.918-1.275 0 0m7.657 4.695c3.4-1.282-5.515-1.288 0 0m-20.466-14.035c3.69 2.829 14.877.362 5.65-1.689c-4.2-2.239-13.666-3.771-7.214 1.35zm25.653 15.656c1.536-2.618-6.444-1.495 0 0m-7.795-6.195c9.02 2.552-7.585-5.704-2.226-.939l1.188.538zm15.628 9.033c8.543.082-7.716-1.178 0 0m-36.773-23.437c-.333-1.591-2.108.134 0 0m51.223 31.543c.228-2.874-2.787 2.138 0 0m-36.644-22.615c-.517-1.513-2.67-.062 0 0m-13.768-9.926c4.904-.295-6.715-2.161 0 0m-16.31-10.543c-.61-2.351-5.337-4.226 0 0m42.818 27.174c-.899-1.025-.423.224 0 0m26.651 16.355c-.085-1.566-1.451.592 0 0m-29.01-18.791c.48-2.017-4.182-.611 0 0m-19.855-12.583c3.649-.391-5.845-2.467 0 0m33.586 20.87c5.686-2.253-5.541-1.1 0 0m-17.47-11.859c6.553.845-7.797-4.457-1.438-.475zm22.774 14.003c6.118-3.658 4.101 8.564 10.38 1.032c6.193-4.522-5.349 5.591 2.284.807c5.52-3.692 13.673 1.75 18.824 3.525c3.704-.182 7.304 3.203 11.102 1.144c7.309-1.969-14.294-2.92-8.631-6.413c-6.689 1.946-11.63-2.321-14.921-6.605c-7.503-1.733-16.177-5.568-19.921-12.207c-1.527-2.493 2.205.351-1.318-3.724c-4.521-4.021-6.778-8.585-9.813-13.473c-3.626-1.934-4.048-7.627-4.414-.191c.028-4.693-4.378-7.852-5.453-6.539c-.019-4.519 4.715-2.254 1.401-5.598c-.713-4.684-3.062-9.566-3.768-14.855c-1.097-2.549-.155-8.009-3.744-2.238c-1.308 6.1-.434-7.495 1.599-3.012c2.67-4.575-.958-4.037-1.106-3.402c1.738-3.859 1.1-9.334-.454-7.246c.926-4.091 1.464-15.055-1.387-13.112c1.728-4.278 3.277-19.575-4.224-13.743c-3.04.043-8.303 1.104-10.792 2.341c7.802 4.3-.784 1.553-3.96.87c-.414 3.98-3.56 2.258-7.49 2.297c6.277.777-3.056 6.42-6.657 4.228c-4.677 2.235 4.036 7.814.093 9.539c.485 2.601-7.164-.939-6.563 5.067c-4.54-1.91-.625 7.124 1.646 4.069c7.722 2.09 5.436 6.854 5.633 11.38c-1.259 2.638-6.212-6.199-1.104-5.789c-4.03-6.547-4.458-2.367-7.807.675c-.779.22 8.543 4.327 2.693 6.358c5.146.794 5.293 5.297 6.34 8.147c3.094 3.222 2.46-3.557 6.162.314c-2.342-3.449-12.406-9.719-4.303-7.708c-.043-3.472-1.466-6.271 1.017-6.203c2.458-4.452-2.575 10.977 2.966 5.319c1.534-.67 1.914-4.458 4.672.357c4.004 3.94 1.446 6.795-4.203 3.187c1.01 3.429 7.557 4.654 6.327 10.016c1.304 4.715 3.129 2.979 4.719 2.706c1.248 4.582 1.956 1.213 2.015-.968c5.713 1.223 4.375 4.6 6.162 6.959c3.936 1.777-5.634-12.044 1.124-4.156c7.11 6.42 2.666 9.1-3.714 8.071c4.038-.326 5.34 5.46 10.392 5.257c4.606 2.191 7.725 10.608-.215 7.104c-2.754-2.483-12.5-5.546-4.54-.823c7.352 3.404 13.191 5.441 20.282 9.714c5.074 3.623 7.266 7.772 9.19 8.593c-4.265 2.037-12.853-1.626-6.476-2.749c-3.977-.724-8.451-2.736-4.641 2.22c3.239 2.705 11.477 2.418 12.954 2.724c-1.252 2.759-3.4 2.978.051 3.192c-3.85 2.052 1.234 2.369 1.591 3.542m-7.873-22.234c-2.343-2.45-2.948-7.039-.416-3.046c1.298.521 4.16 7.498.416 3.046m25.641 16.287c1.461-.095.042 1.11 0 0m-29.34-22.294c-.09-3.704.847 2.856 0 0m-2.548-3.429c-2.947-5.693 3.714 1.612 0 0m-30.883-21.315c1.731-.462.852 2.961 0 0m24.579 13.322c1.063-3.992 1.249 3.35 0 0m-17.364-12.073c-1.224-2.203 2.56 2.066 0 0m14.902 4.777c-2.792-6.255 1.976-3.417.617 1.025zm-25.699-17.139c-1.248-2.051-3.312-8.072-2.648-9.91c.602 2.993 6.366 12.881 2.828 4.096c-3.91-7.364 4.673 2.391 5.556 4.227c.411 1.828-2.412-.499-.5 3.786c-3.488-4.878-2.059 2.694-5.236-2.199m-7.942-5.472c.327-4.771 1.818 3.271 0 0m3.573 1.229c1.704-3.6 2.89 5.02 0 0m-8.594-6.648c-2.957-2.938-5.097-5.646.138-1.823c2.017.079-4.481-6.16.486-1.981c5.223.952 2.58 8.564-.624 3.804m4.514-.118c1.717-1.701.912 1.676 0 0m2.778.891c-2.604-4.88 3.16 2.046 0 0m-5.522-5.277c-8.596-7.65 10.801 4 1.404 1.418zm24.629 14.31c-3.72-2.23-.986-15.702.282-6.488c3.617-1.17-.2 4.758 2.498 4.703c-.425 3.74-1.632 5.085-2.78 1.785m9.109 5.384c.365-4.06.768 2.776 0 0m-1.582-1.564c.41-1.734.042 2.043 0 0m-30.47-20.644c-5.522-7.619 16.05 7.707 3.537 1.933c-1.307-.342-2.88-.464-3.537-1.933m17.542 9.301c-.522-6.415 1.167 1.063 0 0m13.319 8.544c1.03-3.655.077 2.417 0 0m-30.015-20.753c3.282-.702 13.602 5.765 4.125 1.847c-1.053-1.165-3.298-.636-4.125-1.847m28.185 14.048c.35-6.56 1.959-3.919.012.939zm-25.742-16.33c1.338-1.962-3.55-8.87.705-2.478c1.838 1.461 5.322 2.447 2.246 3.062c4.838 4.268-1.18 1.156-2.95-.584m24.348 14.281c.924-7.473.815 4.378 0 0M69.67 99.463c1.02-.437.539 1.361 0 0m6.35 3.78c1.635-3.43 3.015 3.825 0 0m17.914 9.965c-.017-1.317.338 1.916 0 0m-1.037-2.297c-2.487-6.134 2.313 3.248 0 0m-1.527-4.022c-.417-2.535 1.418 3.184 0 0m2.485-4.039c-1.707-3.007 2.154-13.25 2.585-6.897c-1.8 4.95-.52 7.719.737 1.08c2.32-5.226-.501 10.311-3.322 5.817m2.553-15.234c.744-.913.165 1.1 0 0m-4.264 84.022c-1.011-.883.127.562 0 0m8.784 4.444c4.886 1.253 4.861-.761.445-1.359c-2.375-2.21-9.87-4.553-3.162-.274c.445 1.125 1.848 1.099 2.717 1.633M83.58 164.559c2.692 2.007 10.14 5.689 3.835.764c2.125-2.47-4.069-3.784-2.014-5.436c-5.227-3.198-4.123-2.914-.462-2.813c-6.28-2.808.907-2.598.569-4.036c-2.422-.479-12.03-4.271-6.378.311c-5.746-2.929-1.37 1.092-3.106.667c-5.875-1.603 5.233 4.474-.933 2.966c3.37 2.671 9.073 6.842 1.425 2.827c-1.008 1.45 5.473 3.649 7.064 4.75m9.187 5.278c11.171 3.599-5.477-4.398 0 0m47.029 28.49c.144-2.216-1.526 1.891 0 0m4.834 2.035c2.577-2.498.105 3.978 4.271-.612c.045-3.285-.129-5.226-4.787-1.235c-1.284.712-1.857 3.74.516 1.847M67.9 152.174c-.792-3.112-5.548-3.096 0 0m5.161 3.382c-1.916-3.178-6.839-2.877 0 0m29.364 17.709c2.867 2.546 13.168 1.868 3.483.313c-1.435-2.121-9.109-1.61-3.483-.313m40.367 24.929c4.412-3.702-4.276 1.652 0 0m9.176 6.306c.028-1.188-1.901.521 0 0m.015-1.663c4.886-5.177-4.735.306 0 0m-96.778-61.292c-4.165-5.942-2.59-8.613-6.605-13.464c-.76-3.71-6.89-12.13-3.17-3.21c3.406 5.216 4.419 13.293 9.775 16.674m95.245 59.646c8.989-5.81-3.69-2.531 0 0m6.862 2.689c4.502-3.866-2.847-.809 0 0M66.37 145.606c1.288-1.917-3.328-.246 0 0m89.509 56.438c4.359-2.81-1.004-2.379-.79.259zM96.725 164.76c-.15-1.898-2.301.161 0 0m3.656 2.103c-1.162-2.349-1.786.369 0 0m62.491 37.08c5.584-4.028-3.385-.771-1.172.763zm-2.138-1.033c4.549-3.812-4.803 1.689 0 0m10.925 7.275c3.054-2.045-3.711-.662 0 0m-102.49-65.962c4.095.918 16.361 10.083 9.125.634c-3.707-1.097-1.484-10.157-5.264-8.553c2.537 4.239 2.087 6.043-3.24 3.371c-6.696-3.269-3.763 1.619-2.455 2.967c-1.783.405 2.36 1.547 1.835 1.581m-18.651-14.73c.733-3.031-6.749-16.677-3.533-6.837c1.16 2.061 1.043 5.967 3.533 6.837m34.234 21.106c-2.108-1.763-.1-.249 0 0m5.192 1.209c-.003-3.212-5.739-1.304 0 0m44.987 28.36c-.858-2.194-3.392-.051 0 0m2.16 1.578c-.319-1.228-1.246.237 0 0m17.831 11.231c1.715-1.267-2.14-.161 0 0m-95.087-61.105c4.905-1.9-5.256-1.355 0 0m71.135 44.816c-.054-3.176-3.127.787 0 0m-73.073-49.333c3.15-1.064-2.915-.701 0 0m9.145 4.431c-.057-1.044-.967.395 0 0m111.551 68.404c4.052-.821 13.285 2.062 14.778-1.074c-4.921-.12-17.024-3.472-17.597.8l1.078.169zM69.949 132.518c.07-3.218-2.51-.12 0 0m-24.046-16.68c-1.093-6.132-4.154-.928 0 0m5.734 1.441c.07-1.969-5.249-1.772 0 0m3.277 1.609c-.948-.767-.742.97 0 0m20.619 13.227c.97-.891-2.299-.66 0 0M52.73 115.259c-.554-4.631-6.641-.694 0 0m-11.756-7.628c-.167-2.138-1.146.806 0 0m1.749-1.321c-.286-2.534-1.502.322 0 0m9.662 5.767c4.085-1.605-7.442-3.319-.835-.303zm129.308 79.872c2.615-2.397-3.323-.741 0 0m15.622 8.098c1.048-3.1-2.639.408 0 0M53.373 107.013c.43-2.998-3.24.595 0 0m-13.746-9.21c-.739-4.233-.638-11.664 6.425-9.153c-9.428 1.872 6.526 11.719 4.511 3.945c3.965.194 7.756-2.343 5.675 1.507c7.811-.863 13.227-7.636 20.772-6.687c5.877-.778 12.303-1.368 18.636-3.733c5.207-.376 10.22-5.982 7.366-9.305c-7.101-.6-14.535.288-22.384 1.848c-8.697 1.808-16.597 5.243-25.373 6.718c-8.554 1.149 1.72 3.165-.73 3.615c-4.463 1.548 5.323 2.593-.578 4.225c-3.645-.693-7.439-1.945-5.882-5.786c-8.194 1.063-15.393 4.464-8.92 12.802zM59.37 87.748c1.921-7.078 10.293 5.823 3.15.94c-.854-.639-2.257-1.16-3.15-.94m.374-3.432c2.773-2.065 1.474 1.158 0 0m3.52.056c.251-3.256 8.06 1.724 1.288 1.173zm4.817-1.936c1.759-2.055.505 1.828 0 0m1.232-.825c2.928-3.519 16.584-2.246 6.589-.343c-2.68-2.017-4.733 1.189-6.59.343m17.821-2.747c-.445-9.612 8.854 3.415 0 0m5.057-.028c1.849-4.844 7.174-1.944.855-.973c.138.515-.185 2.5-.855.973m-40.812 25.691c5.524-3.383-5.864-2.935 0 0m4.084 1.134c1.937-2.059-4.208-.835 0 0m-12.034-8.54c3.156-2.425-3.735-.922 0 0m163.107 102.04c.092-2.813-2.412 1.267 0 0m-16.573-11.311c.471-3.238-2.13.283 0 0m21.131 12.401c4.413.015 13.371-1.37 3.769-1.366c-1.507.235-8.779.185-3.769 1.366M59.056 103.676c3.571-.245 5.588-3.94-.69-3.727c-9.731-1.007 8.584 3.332-1.25 2.091c-1.32.875 1.863 1.878 1.94 1.636m3.145 1.592c-.373-2.293-1.104 1.219 0 0m3.731-9.949c1.55-1.922-2.144-.514 0 0M54.055 75.465c6.374-2.168 15.09-4.605 18.1 1.068c-3.063-3.687-1.236-7.316 1.656-1.926c4.091 5.454 6.139-2.48 3.478-4.31c3.032 3.768 6.48 5.548 2.03.239c4.837-5.818-9.683.761-12.983.695c-1.588.713-16.394 3.776-12.281 4.234m3.735-7.154c3.635-2.744 12.573 1.632 6.838-2.727c-.561-.495-12.56 3.305-6.838 2.727m13.253.547c4.254.109-1.835-5.715 3.234-3.076c-.832-2.72-5.902-3.23-8.38-4.316c-1.403 2.486 2.853 7.425 5.146 7.392m-10.929-12.03c1.472-1.995-2.58 1.011 0 0m5.417 1.296c6.856-.909-1.748-2.952-1.382-.073zm-10.114-7.913c-4.828-6.302 9.078 1.059 4.174-5.54c-4.128-3.286-8.095 3.7-4.174 5.54m61.952 33.369c2.214-3.925-9.141-5.29-1.492-1.391c.705.235.545 1.662 1.492 1.39" />
        </g>
    </symbol>

    <symbol id="icon-postgresql" viewBox="0 0 256 256">
        <title>PostgreSQL Icon</title>
        <g fill="none">
            <rect width="256" height="256" fill="#f4f2ed" rx="60" />
            <g clip-path="url(#skillIconsPostgresqlLight0)">
                <path fill="#000" d="M171.474 169.034c1.146-9.541.802-10.933 7.903-9.393l1.807.161c5.464.246 12.607-.879 16.875-2.826c9.036-4.191 14.393-11.194 5.485-9.352c-20.321 4.191-21.797-2.693-21.797-2.693c21.466-31.851 30.445-72.281 22.69-82.174c-21.122-27-57.692-14.231-58.303-13.894l-.197.035c-4.008-.843-8.438-1.336-13.571-1.406c-9.196-.14-16.171 2.412-21.473 6.427c0 0-65.229-26.874-62.198 33.799c.646 12.909 18.492 97.734 39.796 72.07c7.798-9.379 15.322-17.304 15.322-17.304c3.726 2.482 8.205 3.748 12.895 3.291l.365-.309a14.2 14.2 0 0 0 .148 3.642c-5.484 6.131-3.867 7.207-14.836 9.464c-11.095 2.285-4.57 6.356-.323 7.425c5.161 1.294 17.1 3.122 25.172-8.17l-.324 1.286c2.152 1.723 2.004 12.375 2.32 19.983c.317 7.608.816 14.717 2.37 18.9c1.554 4.184 3.375 14.977 17.789 11.953c12.045-2.58 21.256-6.3 22.099-40.851" />
                <path stroke="#000" stroke-width="15.11" d="M171.474 169.034c1.146-9.541.802-10.933 7.903-9.393l1.807.161c5.464.246 12.607-.879 16.875-2.826c9.036-4.191 14.393-11.194 5.485-9.352c-20.321 4.191-21.797-2.693-21.797-2.693c21.466-31.851 30.445-72.281 22.69-82.174c-21.122-27-57.692-14.231-58.303-13.894l-.197.035c-4.008-.843-8.438-1.336-13.571-1.406c-9.196-.14-16.171 2.412-21.473 6.427c0 0-65.229-26.874-62.198 33.799c.646 12.909 18.492 97.734 39.796 72.07c7.798-9.379 15.322-17.304 15.322-17.304c3.726 2.482 8.205 3.748 12.895 3.291l.365-.309a14.2 14.2 0 0 0 .148 3.642c-5.484 6.131-3.867 7.207-14.836 9.464c-11.095 2.285-4.57 6.356-.323 7.425c5.161 1.294 17.1 3.122 25.172-8.17l-.324 1.286c2.152 1.723 2.004 12.375 2.32 19.983c.317 7.608.816 14.717 2.37 18.9c1.554 4.184 3.375 14.977 17.789 11.953c12.045-2.58 21.256-6.3 22.099-40.851" />
                <path fill="#336791" d="M203.48 147.688c-20.32 4.19-21.796-2.693-21.796-2.693c21.466-31.852 30.445-72.282 22.696-82.175c-21.121-27-57.691-14.224-58.303-13.893l-.197.035a72.5 72.5 0 0 0-13.563-1.414c-9.197-.14-16.172 2.412-21.473 6.427c0 0-65.236-26.873-62.199 33.8c.647 12.909 18.493 97.734 39.797 72.07c7.847-9.436 15.371-17.361 15.371-17.361c3.726 2.482 8.205 3.748 12.895 3.291l.365-.309a14.2 14.2 0 0 0 .148 3.642c-5.484 6.131-3.867 7.207-14.836 9.464c-11.095 2.285-4.57 6.356-.323 7.425c5.161 1.294 17.1 3.122 25.172-8.17l-.324 1.286c2.152 1.723 3.656 11.201 3.403 19.793c-.253 8.593-.422 14.485 1.266 19.097s3.375 14.977 17.789 11.953c12.045-2.58 18.281-9.281 19.16-20.432c.619-7.932 2.011-6.765 2.11-13.852l1.125-3.361c1.286-10.758.21-14.224 7.628-12.607l1.807.162c5.464.246 12.615-.879 16.805-2.827c9.035-4.19 14.393-11.194 5.485-9.351z" />
                <path stroke="#fff" stroke-linecap="round" stroke-linejoin="round" stroke-width="5.034" d="M146.07 48.596c-2.25.703 36.31-14.097 58.233 13.908c7.735 9.893-1.23 50.323-22.697 82.174m-53.508 9.106c-.562 20.011.141 40.162 2.096 45c1.954 4.837 6.152 14.414 20.573 11.334c12.045-2.58 16.432-7.58 18.331-18.612l4.45-35.275zM110.816 53.469S45.537 26.779 48.575 87.45c.647 12.909 18.492 97.734 39.797 72.07c7.776-9.373 14.808-16.706 14.808-16.706z" />
                <path stroke="#fff" stroke-linecap="round" stroke-linejoin="bevel" stroke-width="5.034" d="M181.613 144.664s1.407 6.891 21.797 2.686c8.909-1.842 3.544 5.161-5.484 9.352c-7.411 3.445-24.033 4.324-24.307-.422c-.703-12.27 8.747-8.543 8.065-11.616c-.619-2.77-4.852-5.484-7.636-12.262c-2.44-5.907-33.469-51.258 8.606-44.53c1.547-.316-10.969-40.077-50.344-40.654s-38.13 48.41-38.13 48.41" />
                <path stroke="#fff" stroke-linejoin="round" stroke-width="5.034" d="M117.08 148.869c-5.484 6.131-3.867 7.207-14.835 9.464c-11.096 2.285-4.57 6.356-.324 7.425c5.161 1.294 17.1 3.122 25.172-8.178c2.461-3.445-.014-8.929-3.389-10.321c-1.631-.675-3.811-1.519-6.609 1.617z" />
                <path stroke="#fff" stroke-linecap="round" stroke-linejoin="round" stroke-width="5.034" d="M116.722 148.763c-.563-3.607 1.181-7.889 3.044-12.909c2.799-7.523 9.254-15.047 4.093-38.932c-3.847-17.79-29.672-3.706-29.672-1.294s1.167 12.235-.422 23.66c-2.088 14.921 9.492 27.535 22.823 26.248" />
                <path fill="#fff" stroke="#fff" stroke-width="1.68" d="M110.577 95.27c-.12.822 1.511 3.023 3.628 3.318c2.116.296 3.923-1.42 4.043-2.25c.119-.83-1.512-1.73-3.628-2.025s-3.938.14-4.043.956Z" />
                <path fill="#fff" stroke="#fff" stroke-width="0.837" d="M175.011 93.59c.112.822-1.512 3.022-3.628 3.318c-2.117.295-3.938-1.42-4.043-2.25c-.106-.83 1.512-1.73 3.628-2.025s3.937.14 4.043.956Z" />
                <path stroke="#fff" stroke-linecap="round" stroke-linejoin="round" stroke-width="5.034" d="M182.577 87.887c.351 6.469-1.393 10.863-1.618 17.747c-.323 9.998 4.768 21.445-2.904 32.906" />
            </g>
            <defs>
                <clipPath id="skillIconsPostgresqlLight0">
                    <path fill="#fff" d="M38 38h180v180H38z" />
                </clipPath>
            </defs>
        </g>
    </symbol>

    <symbol id="icon-sqlite" viewBox="0 0 256 256">
        <title>SQLite Icon</title>
        <g fill="none">
            <g clip-path="url(#skillIconsSqlite1)">
                <path fill="#d9d9d9" d="M60 0C26.863 0 0 26.863 0 60v136c0 33.137 26.863 60 60 60h108.46c-1.779-5.243-3.172-13.546-3.956-23.023c-.675-8.152-.899-17.171-.525-25.87c-.101-1.286-.162-2.122-.162-2.122s-1.874-12.61-4.571-22.969c-1.194-4.598-2.553-8.756-3.98-11.166c-.735-1.243.08-6.351 2.131-13.916c1.2 2.071 6.263 10.932 7.28 13.788c1.145 3.228 1.385 4.153 1.385 4.153s-2.777-14.272-7.333-22.6a303 303 0 0 1 3.542-11.066c1.578 2.767 5.165 9.121 6.461 12.132c.12.279.228.541.307.757c.184.522.339.965.478 1.371c.731 2.118.909 2.792.909 2.792s-.271-1.386-.775-3.524c-.213-.903-.478-1.965-.773-3.096c-1.148-4.409-2.892-10.181-5.125-14.704c5.732-29.794 24.181-68.807 44.057-89.868c1.713-1.814 3.434-3.511 5.158-5.041c11.619-10.3 23.392-13.78 33.115-5.118c7.034 6.267 9.912 14.925 9.917 24.89V60c0-33.137-26.863-60-60-60z" />
                <path fill="url(#skillIconsSqlite0)" d="M60 0C26.863 0 0 26.863 0 60v136c0 33.137 26.863 60 60 60h108.46c-1.779-5.243-3.172-13.546-3.956-23.023c-.675-8.152-.899-17.171-.525-25.87c-.101-1.286-.162-2.122-.162-2.122s-1.874-12.61-4.571-22.969c-1.194-4.598-2.553-8.756-3.98-11.166c-.735-1.243.08-6.351 2.131-13.916c1.2 2.071 6.263 10.932 7.28 13.788c1.145 3.228 1.385 4.153 1.385 4.153s-2.777-14.272-7.333-22.6a303 303 0 0 1 3.542-11.066c1.578 2.767 5.165 9.121 6.461 12.132c.12.279.228.541.307.757c.184.522.339.965.478 1.371c.731 2.118.909 2.792.909 2.792s-.271-1.386-.775-3.524c-.213-.903-.478-1.965-.773-3.096c-1.148-4.409-2.892-10.181-5.125-14.704c5.732-29.794 24.181-68.807 44.057-89.868c1.713-1.814 3.434-3.511 5.158-5.041c11.619-10.3 23.392-13.78 33.115-5.118c7.034 6.267 9.912 14.925 9.917 24.89V60c0-33.137-26.863-60-60-60z" />
                <path fill="#003b57" d="M246.083 36.91c-9.723-8.662-21.496-5.183-33.115 5.118c-1.724 1.53-3.445 3.227-5.158 5.04c-19.876 21.063-38.325 60.075-44.057 89.869c2.233 4.523 3.977 10.295 5.125 14.704c.295 1.131.56 2.193.773 3.096c.504 2.138.775 3.524.775 3.524s-.178-.674-.909-2.792c-.139-.406-.294-.849-.478-1.371a16 16 0 0 0-.307-.757c-1.296-3.011-4.883-9.365-6.461-12.132a303 303 0 0 0-3.542 11.066c4.556 8.328 7.333 22.6 7.333 22.6s-.24-.925-1.385-4.153c-1.017-2.856-6.08-11.717-7.28-13.788c-2.051 7.565-2.866 12.673-2.131 13.916c1.427 2.41 2.786 6.568 3.98 11.166c2.697 10.359 4.571 22.969 4.571 22.969s.061.836.162 2.122c-.374 8.699-.15 17.718.525 25.87c.893 10.791 2.575 20.062 4.719 25.023l1.455-.793c-3.148-9.774-4.427-22.584-3.867-37.358c.847-22.581 6.05-49.813 15.662-78.196c16.24-42.847 38.772-77.224 59.394-93.642c-18.796 16.956-44.235 71.839-51.85 92.163c-8.526 22.759-14.569 44.117-18.21 64.579c6.283-19.183 26.598-27.429 26.598-27.429s9.964-12.274 21.608-29.81c-6.975 1.589-18.428 4.309-22.265 5.919c-5.658 2.371-7.183 3.18-7.183 3.18s18.33-11.15 34.056-16.198c21.628-34.025 45.19-82.362 21.462-103.505M28.52 49c-3.063 0-5.554.895-7.463 2.683c-1.91 1.79-2.878 4.137-2.878 7.012c0 1.49.24 2.848.714 4.093c.474 1.247 1.212 2.403 2.203 3.447c.992 1.045 2.977 2.465 5.936 4.27c3.63 2.186 6.005 3.96 7.145 5.346c1.141 1.385 1.707 2.836 1.707 4.348c0 2.026-.675 3.642-2.064 4.858c-1.391 1.215-3.251 1.82-5.558 1.82c-2.433 0-4.552-.845-6.372-2.526c-1.82-1.682-2.738-3.908-2.759-6.698H18V87.78h1.131c.346-.959.824-1.45 1.45-1.45c.3 0 1.005.205 2.104.588c2.671.938 4.865 1.39 6.59 1.39c2.971 0 5.508-1.026 7.622-3.114c2.11-2.086 3.176-4.602 3.176-7.54c0-2.278-.704-4.305-2.084-6.071c-1.381-1.769-4.066-3.826-8.08-6.19c-3.452-2.046-5.694-3.713-6.728-5.013c-1.036-1.298-1.568-2.733-1.568-4.309c0-1.704.634-3.072 1.885-4.093c1.252-1.022 2.891-1.528 4.943-1.528c2.309 0 4.233.676 5.756 2.037c1.521 1.363 2.401 3.252 2.66 5.68h1.132v-8.774h-1.053q-.192.67-.357.861c-.106.128-.311.196-.615.196c-.366 0-1.019-.152-1.945-.45c-1.985-.66-3.815-.999-5.499-.999m36.98 0c-3.733 0-7.121.868-10.183 2.605c-3.066 1.734-5.493 4.14-7.285 7.207c-1.79 3.066-2.68 6.323-2.68 9.793c0 4.662 1.547 8.816 4.665 12.456c3.12 3.638 6.858 5.905 11.195 6.777c.992.51 2.41 1.826 4.268 3.956c2.093 2.404 3.864 4.138 5.32 5.17a16 16 0 0 0 4.684 2.292c1.661.499 3.457.744 5.4.744c2.351 0 4.457-.403 6.311-1.234l-.416-1.018a10.2 10.2 0 0 1-3.434.568c-1.642 0-3.3-.534-4.963-1.606c-1.66-1.075-3.736-3.125-6.213-6.15c-1.164-1.45-1.967-2.364-2.421-2.722c4.745-.915 8.648-3.184 11.691-6.816c3.043-3.63 4.565-7.774 4.565-12.417c0-5.514-1.988-10.147-5.935-13.925C76.12 50.9 71.262 49 65.5 49m23.085 0l.06 1.195c2.484 0 3.876.722 4.188 2.174c.115.52.169 1.478.178 2.86l-.02 26.42q-.03 2.96-.853 3.78c-.549.543-1.476.882-2.819 1.018l-.06 1.195h24.773l.635-5.993h-1.131c-.323 1.632-1.064 2.802-2.243 3.466c-1.183.67-3.273 1-6.293 1h-2.342c-2.717 0-4.289-.97-4.704-2.92a6 6 0 0 1-.12-1.253l.1-26.714c0-1.97.252-3.29.774-3.937c.528-.643 1.48-1.004 2.858-1.096L101.507 49zm-22.688 1.45c4.21 0 7.647 1.635 10.302 4.935s3.97 7.824 3.97 13.553q.001 8.14-4.01 13.044c-2.675 3.268-6.235 4.896-10.66 4.896c-4.25 0-7.696-1.679-10.34-5.053c-2.643-3.374-3.95-7.755-3.95-13.142c0-5.535 1.323-9.967 3.989-13.279c2.665-3.308 6.233-4.955 10.699-4.955m56.968 5.679c-.604 0-1.065.201-1.409.607c-.353.404-.461.894-.338 1.489c.119.576.449 1.082.973 1.508c.521.425 1.083.646 1.687.646c.584 0 1.03-.221 1.35-.646q.478-.64.298-1.508c-.124-.595-.442-1.085-.933-1.489c-.497-.406-1.044-.607-1.628-.607m16.336 4.054c-1.027 3.897-3.252 6.006-6.669 6.346l.039 1.116h3.99l-.079 13.2c.006 2.258.076 3.76.238 4.525c.393 1.83 1.605 2.761 3.632 2.761q4.402 0 9.23-5.288l-.972-.822c-2.324 2.32-4.379 3.486-6.173 3.486c-1.103 0-1.787-.626-2.045-1.86a4.7 4.7 0 0 1-.099-1.058l.04-14.944h6.093l-.059-1.782h-6.015v-5.68zm23.561 4.975c-3.408 0-6.181 1.632-8.336 4.877c-2.145 3.25-2.809 6.85-1.965 10.81c.496 2.32 1.484 4.12 2.997 5.387c1.51 1.267 3.426 1.9 5.716 1.9c2.133 0 5.103-.534 6.352-1.607c1.253-1.072 2.408-2.81 3.474-5.19l-.854-.881c-1.7 3.087-5.133 4.642-7.721 4.642c-3.559 0-5.738-1.927-6.55-5.758a14 14 0 0 1-.239-1.567c4.234-.662 7.442-1.833 9.608-3.526c2.163-1.693 4.336-3.489 3.93-5.386c-.242-1.127-.835-2.013-1.747-2.683c-.924-.67-3.324-1.018-4.665-1.018m-37.257.137l-7.344 1.665v1.292l2.54-.313c1.231 0 1.955.55 2.184 1.645c.077.367.125.881.139 1.528l-.08 11.849c-.02 1.64-.205 2.593-.575 2.879q-.561.43-2.958.43l-.04 1.117h11.652l-.02-1.116c-1.619 0-2.668-.126-3.136-.372c-.46-.245-.776-.69-.913-1.371c-.106-.492-.152-1.338-.159-2.507l.04-16.726zm35.392 2.194c.709 0 1.394.27 2.084.802c.68.531 1.095 1.122 1.23 1.763c.665 3.15-2.166 5.328-8.535 6.542c-.182-2.297.222-4.383 1.251-6.268c1.021-1.883 2.351-2.84 3.97-2.84" />
            </g>
            <defs>
                <linearGradient id="skillIconsSqlite0" x1="147.614" x2="147.614" y1="5.239" y2="241.763" gradientUnits="userSpaceOnUse">
                    <stop stop-color="#97d9f6" />
                    <stop offset=".92" stop-color="#0f80cc" />
                    <stop offset="1" stop-color="#0f80cc" />
                </linearGradient>
                <clipPath id="skillIconsSqlite1">
                    <rect width="256" height="256" fill="#fff" rx="60" />
                </clipPath>
            </defs>
        </g>
    </symbol>

    <symbol id="icon-git" viewBox="0 0 256 256">
        <title>Git Icon</title>
        <g fill="none">
            <rect width="256" height="256" fill="#f03c2e" rx="60" />
            <g clip-path="url(#skillIconsGit0)">
                <path fill="#fff" d="m224.225 119.094l-87.319-87.319a12.87 12.87 0 0 0-14.035-2.793a12.9 12.9 0 0 0-4.177 2.793L100.569 49.9l23 23c5.35-1.875 11.475-.594 15.737 3.669a15.31 15.31 0 0 1 3.631 15.831l22.169 22.169c5.363-1.85 11.55-.657 15.831 3.637a15.32 15.32 0 0 1 3.321 16.706a15.333 15.333 0 0 1-20.029 8.293c-1.86-.771-3.55-1.9-4.973-3.324c-4.5-4.5-5.612-11.125-3.337-16.669l-20.675-20.675v54.407a15.6 15.6 0 0 1 4.062 2.9a15.326 15.326 0 0 1-21.675 21.675a15.32 15.32 0 0 1-3.326-16.704a15.3 15.3 0 0 1 3.326-4.971c1.481-1.475 3.125-2.594 5.019-3.344v-54.913a15.2 15.2 0 0 1-5.019-3.343a15.315 15.315 0 0 1-3.3-16.757L91.644 58.814l-59.875 59.812a12.88 12.88 0 0 0-2.795 14.04a12.9 12.9 0 0 0 2.795 4.179l87.325 87.312a12.9 12.9 0 0 0 4.177 2.793a12.9 12.9 0 0 0 9.858 0a12.9 12.9 0 0 0 4.177-2.793l86.919-86.781a12.88 12.88 0 0 0 3.776-9.109a12.88 12.88 0 0 0-3.776-9.11" />
            </g>
            <defs>
                <clipPath id="skillIconsGit0">
                    <path fill="#fff" d="M28 28h200v200H28z" />
                </clipPath>
            </defs>
        </g>
    </symbol>

    <symbol id="icon-github" viewBox="0 0 256 256">
        <title>Github Icon</title>
        <g fill="none">
            <rect width="256" height="256" fill="#242938" rx="60" />
            <path fill="#fff" d="M128.001 30C72.779 30 28 74.77 28 130.001c0 44.183 28.653 81.667 68.387 94.89c4.997.926 6.832-2.169 6.832-4.81c0-2.385-.093-10.262-.136-18.618c-27.82 6.049-33.69-11.799-33.69-11.799c-4.55-11.559-11.104-14.632-11.104-14.632c-9.073-6.207.684-6.079.684-6.079c10.042.705 15.33 10.305 15.33 10.305c8.919 15.288 23.394 10.868 29.1 8.313c.898-6.464 3.489-10.875 6.349-13.372c-22.211-2.529-45.56-11.104-45.56-49.421c0-10.918 3.906-19.839 10.303-26.842c-1.039-2.519-4.462-12.69.968-26.464c0 0 8.398-2.687 27.508 10.25c7.977-2.215 16.531-3.326 25.03-3.364c8.498.038 17.06 1.149 25.051 3.365c19.087-12.939 27.473-10.25 27.473-10.25c5.443 13.773 2.019 23.945.98 26.463c6.412 7.003 10.292 15.924 10.292 26.842c0 38.409-23.394 46.866-45.662 49.341c3.587 3.104 6.783 9.189 6.783 18.519c0 13.38-.116 24.149-.116 27.443c0 2.661 1.8 5.779 6.869 4.797C199.383 211.64 228 174.169 228 130.001C228 74.771 183.227 30 128.001 30M65.454 172.453c-.22.497-1.002.646-1.714.305c-.726-.326-1.133-1.004-.898-1.502c.215-.512.999-.654 1.722-.311c.727.326 1.141 1.01.89 1.508m4.919 4.389c-.477.443-1.41.237-2.042-.462c-.654-.697-.777-1.629-.293-2.078c.491-.442 1.396-.235 2.051.462c.654.706.782 1.631.284 2.078m3.374 5.616c-.613.426-1.615.027-2.234-.863c-.613-.889-.613-1.955.013-2.383c.621-.427 1.608-.043 2.236.84c.611.904.611 1.971-.015 2.406m5.707 6.504c-.548.604-1.715.442-2.57-.383c-.874-.806-1.118-1.95-.568-2.555c.555-.606 1.729-.435 2.59.383c.868.804 1.133 1.957.548 2.555m7.376 2.195c-.242.784-1.366 1.14-2.499.807c-1.13-.343-1.871-1.26-1.642-2.052c.235-.788 1.364-1.159 2.505-.803c1.13.341 1.871 1.252 1.636 2.048m8.394.932c.028.824-.932 1.508-2.121 1.523c-1.196.027-2.163-.641-2.176-1.452c0-.833.939-1.51 2.134-1.53c1.19-.023 2.163.639 2.163 1.459m8.246-.316c.143.804-.683 1.631-1.864 1.851c-1.161.212-2.236-.285-2.383-1.083c-.144-.825.697-1.651 1.856-1.865c1.183-.205 2.241.279 2.391 1.097" />
        </g>
    </symbol>

    <symbol id="icon-linux" viewBox="0 0 256 256">
        <title>Linux Icon</title>
        <g fill="none">
            <rect width="256" height="256" fill="#f4f2ed" rx="60" />
            <path fill="#eceff1" d="m85.95 199.926l24.53 13.62h37.096l34.702-26.055l15.556-40.859l-35.899-43.227l-10.171-24.278l-49.66 1.776l.598 13.62l-9.573 17.764l-14.958 29.016l-2.991 24.278z" />
            <path fill="#263238" d="M187.064 114.656c-9.573-13.62-17.351-21.91-21.539-39.082s1.197-12.435-2.393-27.24c-1.795-7.697-4.787-13.027-7.778-17.172c-3.59-4.145-7.778-6.514-10.172-7.106c-5.384-2.96-17.949-7.698-33.505.592c-16.155 8.29-14.36 26.055-11.368 62.177c0 2.368-.599 5.33-1.795 7.698c-2.393 5.33-6.582 10.066-10.171 14.212c-4.189 5.921-8.377 11.843-11.368 18.356c-7.18 13.62-13.762 30.792-11.967 37.306c2.992-.592 40.686 56.255 40.686 57.439c2.393-.592 12.564-.592 21.539-.592c12.565-.592 19.744-1.184 29.916 1.184c0-1.776-.599-3.553-.599-5.329c0-3.553.599-6.514 1.197-10.659c.598-2.961 1.197-5.921 1.795-9.474c-5.983 5.329-16.753 11.251-26.924 13.027c-8.975 1.776-23.933-1.184-31.113-10.067c.599 0 1.795 0 2.394-.592c1.795-.592 3.59-1.184 4.188-2.368c1.795-2.961.598-5.922-.598-7.698c-1.197-1.777-10.172-8.291-14.36-11.843c-4.188-3.553-6.581-5.33-8.975-7.698l-4.786-4.738c-1.197-1.184-1.795-2.368-2.393-2.961c-1.197-2.96-1.795-6.513-1.197-11.25c.598-6.514 2.991-11.844 5.983-17.765c1.197-2.369 4.188-7.106 4.188-7.106s-10.171 24.871-4.786 32.569c0 0 .598-7.698 2.991-15.396c1.795-5.33 4.787-13.028 8.377-17.173s12.564-19.541 13.163-29.016c0-4.145.598-8.29.598-11.25c-2.393-2.37 39.489-8.29 41.882-1.777c.598 2.369 8.975 23.686 13.761 34.937c2.393 5.33 5.385 10.067 7.18 15.988c1.795 6.514 2.991 15.396 2.991 24.279c0 1.776 0 4.737-.598 7.698c1.197 0 24.531-24.871-2.991-45.596c0 0 16.752 7.698 17.351 23.094c.598 12.435-4.787 22.502-5.983 24.278c.598 0 12.564 5.33 13.162 5.33c2.394 0 7.18-1.777 7.18-1.777c.599-1.776 2.393-6.514 2.393-8.29c4.189-13.62-5.983-35.529-15.556-49.149" />
            <path fill="#eceff1" d="M111.078 75.574c4.296 0 7.778-5.303 7.778-11.843c0-6.541-3.482-11.843-7.778-11.843S103.3 57.19 103.3 63.73s3.483 11.843 7.778 11.843m26.924 1.185c5.618 0 10.172-6.098 10.172-13.62S143.62 49.52 138.002 49.52c-5.617 0-10.171 6.098-10.171 13.62s4.554 13.62 10.171 13.62" />
            <path fill="#212121" d="M115.424 64.541c-.497-3.893-2.761-6.817-5.056-6.53s-3.752 3.676-3.254 7.57c.497 3.893 2.76 6.817 5.055 6.53c2.295-.288 3.752-3.677 3.255-7.57m21.981 8.664c3.304 0 5.983-3.446 5.983-7.698c0-4.251-2.679-7.698-5.983-7.698c-3.305 0-5.984 3.447-5.984 7.698s2.679 7.698 5.984 7.698" />
            <path fill="#ffc107" d="M216.98 195.781c-2.393-1.184-6.582-2.961-10.172-8.29c-1.794-2.961-1.196-11.251-4.188-14.804c-1.795-2.368-4.188-1.184-4.786-1.184c-5.385 1.184-17.95 9.474-26.326 0c-1.197-1.184-2.992-2.961-5.983-2.961c-2.992 0-4.188 1.184-5.385 3.553s-1.197 4.145-1.197 10.067c0 4.737 0 10.066-.598 14.211c-1.197 10.067-2.991 15.989-2.991 21.91c0 6.514 1.794 10.659 4.188 12.435c1.795 1.777 4.786 2.961 11.368 2.961c6.581 0 10.769-2.368 14.958-6.514c2.991-2.96 5.384-4.145 13.761-10.066c6.581-4.145 16.753-9.475 18.547-11.251c1.197-1.184 2.992-1.777 2.992-5.33c0-2.96-2.393-4.145-4.188-4.737m-120.261 1.777c-5.983-9.475-6.582-11.251-10.77-17.173c-3.59-5.921-11.368-17.172-16.154-17.172c-3.59 0-5.385 1.776-7.778 4.145c-2.394 2.368-4.787 7.698-8.975 10.659c-3.59 2.96-13.761 2.368-16.154 5.921s2.393 8.883 2.393 17.765c0 3.553-2.992 5.921-3.59 8.29c-.598 2.961-1.197 4.737 0 7.106c2.393 3.553 5.385 4.737 25.727 8.882c10.77 2.369 20.941 8.29 27.523 8.883c6.581.592 17.949 0 17.949-15.989c.599-9.474-4.786-11.843-10.171-21.317m11.368-107.18c-3.59-2.369-6.582-4.738-6.582-8.29c0-3.553 2.394-4.738 5.984-7.698c.598-.593 7.179-6.514 13.761-6.514s14.359 4.145 17.351 5.33c5.385 1.183 10.769 2.368 10.171 6.513c-.598 5.921-1.196 7.106-7.18 10.067c-4.188 1.184-11.966 7.698-17.351 7.698c-2.393 0-5.983 0-8.376-.593c-1.795-.592-4.787-3.553-7.778-6.513" />
            <path fill="#634703" d="M106.89 85.64c1.197 1.185 2.992 2.37 4.787 2.961c1.196.592 2.991 1.185 2.991 1.185h5.385c2.992 0 7.18-1.185 11.368-3.553c4.188-1.777 4.787-2.961 7.778-4.145c2.992-1.777 5.983-3.553 4.787-4.145c-1.197-.593-2.394 0-6.582 2.368c-3.59 2.369-6.581 3.553-10.171 5.33c-1.795.592-4.188 1.776-5.983 1.776h-5.385c-1.795 0-2.992-.592-4.787-1.184c-1.196-.593-1.795-1.185-2.393-1.185c-1.196-.592-3.59-2.96-4.786-3.553c0 0-1.197 0-.599.593zm17.95-13.027c.598 1.184 1.795 1.184 2.393 1.776s1.197.593 1.197.593c.598-.593 0-1.777-.599-1.777c0-1.184-2.991-1.184-2.991-.592m-9.573 1.184c0 .593 1.196 1.185 1.196.593c.599-.593 1.197-1.185 1.795-1.185c1.197-.592.598-1.184-1.196-1.184c-1.197.592-1.197 1.184-1.795 1.776" />
            <path fill="#455a64" d="M173.303 178.609v1.776c1.197 2.369 4.188 2.961 6.581 2.961c3.59 0 7.18-2.369 8.975-4.737c0-.592.598-1.185 1.197-1.777c1.196-1.776 1.795-2.96 2.393-3.553c0 0-.598-.592-.598-1.184c-.599-1.184-2.394-2.369-4.787-2.961c-1.795-.592-4.786-1.184-5.983-1.184c-5.385-.592-8.376 1.184-10.171 2.961c0 0 .598 0 .598.592c1.197 1.184 1.795 2.369 1.795 4.145c.598 1.184 0 1.776 0 2.961" />
        </g>
    </symbol>

    <symbol id="icon-bash" viewBox="0 0 256 256">
        <title>Bash Icon</title>
        <g fill="none">
            <rect width="256" height="256" fill="#f4f2ed" rx="60" />
            <path fill="#fefefe" fill-rule="evenodd" d="m203.819 68.835l-63.14-37.48a23.79 23.79 0 0 0-24.361 0l-63.14 37.48C45.642 73.31 41 81.575 41 90.522v74.961c0 8.945 4.643 17.215 12.18 21.689l63.14 37.473a23.8 23.8 0 0 0 12.179 3.354a23.8 23.8 0 0 0 12.178-3.354l63.14-37.473c7.536-4.474 12.182-12.744 12.182-21.689v-74.96c0-8.948-4.646-17.214-12.18-21.688" clip-rule="evenodd" />
            <path fill="#3e474a" fill-rule="evenodd" d="m118.527 220.808l-63.14-37.474c-6.176-3.666-10.013-10.506-10.013-17.852V90.523c0-7.346 3.837-14.186 10.01-17.85l63.143-37.48a19.55 19.55 0 0 1 9.972-2.747c3.495 0 6.943.95 9.973 2.747l63.14 37.48c5.204 3.089 8.714 8.438 9.701 14.437c-2.094-4.469-6.817-5.684-12.32-2.47l-59.734 36.897c-7.448 4.354-12.94 9.24-12.945 18.221v73.604c-.004 5.378 2.168 8.861 5.504 9.871c-1.096.19-2.201.322-3.319.322a19.55 19.55 0 0 1-9.972-2.747m85.292-151.974l-63.14-37.478A23.8 23.8 0 0 0 128.499 28a23.8 23.8 0 0 0-12.181 3.356l-63.14 37.478C45.642 73.308 41 81.576 41 90.524v74.958c0 8.945 4.643 17.215 12.18 21.689l63.14 37.475A23.84 23.84 0 0 0 128.499 228a23.83 23.83 0 0 0 12.178-3.354l63.142-37.475c7.536-4.474 12.18-12.744 12.18-21.689V90.523c0-8.947-4.644-17.215-12.18-21.689" clip-rule="evenodd" />
            <path fill="#47b353" fill-rule="evenodd" d="m187.267 172.729l-15.722 9.41c-.417.243-.723.516-.726 1.017v4.114c0 .503.338.712.754.467l15.966-9.703c.416-.243.48-.708.483-1.209v-3.629c0-.5-.338-.71-.755-.467" clip-rule="evenodd" />
            <path fill="#fefefe" fill-rule="evenodd" d="M153.788 138.098c.509-.258.928.059.935.725l.053 5.439c2.277-.906 4.255-1.148 6.047-.734c.389.104.561.633.402 1.261l-1.197 4.82c-.093.364-.298.732-.545.961a1.3 1.3 0 0 1-.315.234a.7.7 0 0 1-.472.077c-.818-.185-2.763-.61-5.823.94c-3.21 1.625-4.333 4.414-4.311 6.484c.027 2.472 1.295 3.221 5.673 3.296c5.834.097 8.355 2.646 8.416 8.522c.06 5.77-3.02 11.966-7.732 15.763l.104 5.384c.006.648-.415 1.391-.924 1.649l-3.189 1.837c-.511.258-.93-.06-.937-.708l-.055-5.296c-2.731 1.135-5.499 1.409-7.267.699c-.333-.13-.476-.622-.344-1.182l1.156-4.868c.092-.384.295-.768.571-1.012q.147-.142.299-.219c.183-.092.362-.112.514-.055c1.905.642 4.342.342 6.685-.844c2.977-1.506 4.968-4.542 4.937-7.558c-.029-2.737-1.51-3.874-5.113-3.901c-4.586.013-8.861-.891-8.932-7.642c-.057-5.558 2.833-11.342 7.408-14.999l-.057-5.435c-.007-.668.401-1.403.926-1.667z" clip-rule="evenodd" />
        </g>
    </symbol>

    <symbol id="icon-typescript" viewBox="0 0 256 256">
        <title>Typescript Icon</title>
        <g fill="none">
            <rect width="256" height="256" fill="#007acc" rx="60" />
            <path fill="#fff" d="m56.611 128.849l-.081 10.484h33.32v94.679h23.569v-94.679h33.32v-10.281c0-5.689-.121-10.443-.284-10.565c-.122-.162-20.399-.244-44.983-.203l-44.739.122zm149.956-10.741c6.501 1.626 11.459 4.511 16.01 9.224c2.357 2.52 5.851 7.112 6.136 8.209c.081.325-11.053 7.802-17.798 11.987c-.244.163-1.22-.894-2.317-2.519c-3.291-4.795-6.745-6.868-12.028-7.233c-7.761-.529-12.759 3.535-12.718 10.321c0 1.991.284 3.169 1.097 4.795c1.706 3.535 4.876 5.648 14.832 9.955c18.326 7.884 26.168 13.085 31.045 20.48c5.445 8.249 6.664 21.415 2.966 31.208c-4.063 10.646-14.141 17.879-28.323 20.277c-4.388.772-14.791.65-19.504-.203c-10.281-1.829-20.033-6.908-26.047-13.572c-2.357-2.601-6.949-9.387-6.664-9.875c.121-.162 1.178-.812 2.356-1.503c1.138-.65 5.446-3.129 9.509-5.486l7.355-4.267l1.544 2.276c2.154 3.291 6.867 7.802 9.712 9.305c8.167 4.308 19.383 3.698 24.909-1.259c2.357-2.154 3.332-4.389 3.332-7.68c0-2.967-.366-4.267-1.91-6.502c-1.991-2.844-6.054-5.242-17.595-10.24c-13.206-5.689-18.895-9.224-24.096-14.832c-3.007-3.25-5.852-8.452-7.03-12.8c-.975-3.616-1.219-12.678-.447-16.335c2.722-12.759 12.353-21.658 26.25-24.3c4.511-.853 14.994-.528 19.424.569" />
        </g>
    </symbol>

    <symbol id="icon-python" viewBox="0 0 256 256">
        <title>Python Icon</title>
        <g fill="none">
            <rect width="256" height="256" fill="#f4f2ed" rx="60" />
            <path fill="url(#skillIconsPythonLight0)" d="M127.279 29c-50.772 0-47.602 22.018-47.602 22.018l.057 22.81h48.451v6.85H60.489S28 76.992 28 128.221s28.357 49.414 28.357 49.414h16.924v-23.773s-.912-28.357 27.905-28.357h48.054s26.999.436 26.999-26.094V55.546S180.338 29 127.279 29m-26.716 15.339a8.71 8.71 0 0 1 8.717 8.717a8.71 8.71 0 0 1-8.717 8.716a8.71 8.71 0 0 1-8.716-8.716a8.71 8.71 0 0 1 8.716-8.717" />
            <path fill="url(#skillIconsPythonLight1)" d="M128.721 227.958c50.772 0 47.602-22.017 47.602-22.017l-.057-22.811h-48.451v-6.849h67.696S228 179.966 228 128.736s-28.357-49.413-28.357-49.413h-16.924v23.773s.912 28.357-27.905 28.357H106.76s-27-.437-27 26.093v43.866s-4.099 26.546 48.961 26.546m26.716-15.339a8.71 8.71 0 0 1-8.717-8.716a8.71 8.71 0 0 1 8.717-8.717a8.71 8.71 0 0 1 8.717 8.717a8.71 8.71 0 0 1-8.717 8.716" />
            <defs>
                <linearGradient id="skillIconsPythonLight0" x1="47.22" x2="146.333" y1="46.896" y2="145.02" gradientUnits="userSpaceOnUse">
                    <stop stop-color="#387eb8" />
                    <stop offset="1" stop-color="#366994" />
                </linearGradient>
                <linearGradient id="skillIconsPythonLight1" x1="108.056" x2="214.492" y1="109.905" y2="210.522" gradientUnits="userSpaceOnUse">
                    <stop stop-color="#ffe052" />
                    <stop offset="1" stop-color="#ffc331" />
                </linearGradient>
            </defs>
        </g>
    </symbol>

    <symbol id="iwwa--file-pdf" viewBox="0 0 40 40">
        <title>PDF Icon</title>
        <g fill="currentColor">
            <path d="M14.105 20.35c0-.76-.528-1.214-1.459-1.214c-.38 0-.637.037-.772.073v2.441c.16.036.356.049.625.049c.993 0 1.606-.503 1.606-1.349m5.766-1.19c-.417 0-.687.037-.847.074v5.408c.16.037.417.037.65.037c1.692.012 2.796-.92 2.796-2.894c.013-1.717-.993-2.625-2.599-2.625" />
            <path d="M30.918 15.983h-.678v-3.271l-.006-.062a.55.55 0 0 0-.131-.359L24.66 6.075l-.004-.004a.57.57 0 0 0-.255-.159l-.03-.01a.5.5 0 0 0-.127-.016H10.867c-.611 0-1.107.497-1.107 1.107v8.99h-.678c-.874 0-1.582.708-1.582 1.582v8.228c0 .873.709 1.582 1.582 1.582h.678v5.633c0 .61.496 1.107 1.107 1.107h18.266c.61 0 1.107-.497 1.107-1.107v-5.633h.678c.874 0 1.582-.709 1.582-1.582v-8.228c0-.874-.709-1.582-1.582-1.582m-20.051-8.99H23.69v5.664c0 .306.248.553.554.553h4.89v2.773H10.867zm13.59 14.73c0 1.582-.576 2.674-1.375 3.348c-.87.723-2.194 1.067-3.813 1.067c-.969 0-1.655-.062-2.122-.122v-8.119c.687-.11 1.582-.171 2.527-.171c1.569 0 2.587.282 3.384.883c.859.637 1.399 1.655 1.399 3.114m-14.436 4.33v-8.156c.576-.098 1.386-.171 2.526-.171c1.153 0 1.975.221 2.526.662c.527.417.882 1.104.882 1.913c0 .81-.269 1.496-.76 1.962c-.638.601-1.582.871-2.686.871c-.245 0-.466-.012-.637-.037v2.956zm19.112 6.655H10.867v-5.333h18.266zm1.604-13.388H27.56v1.889h2.968v1.521H27.56v3.323h-1.875v-8.266h5.052z" />
        </g>
    </symbol>

    <symbol id="material-symbols--download" viewBox="0 0 24 24">
        <path fill="currentColor" d="m12 16l-5-5l1.4-1.45l2.6 2.6V4h2v8.15l2.6-2.6L17 11zm-6 4q-.825 0-1.412-.587T4 18v-3h2v3h12v-3h2v3q0 .825-.587 1.413T18 20z" />
    </symbol>

    <symbol id="skill-icons--vscode-light" viewBox="0 0 256 256">
        <g fill="none">
            <rect width="256" height="256" fill="#f4f2ed" rx="60" />
            <path fill="#2489ca" d="M33.716 100.208s-4.735-3.413.947-7.97l13.236-11.836s3.788-3.985 7.792-.513l122.149 92.479v44.346s-.059 6.964-8.996 6.194z" />
            <path fill="#1070b3" d="m65.2 128.792l-31.484 28.623s-3.236 2.407 0 6.708l14.617 13.295s3.472 3.729 8.601-.513l33.378-25.309z" />
            <path fill="#0877b9" d="m120.474 129.029l57.741-44.09l-.375-44.109s-2.466-9.627-10.692-4.616l-76.836 69.931z" />
            <path fill="#3c99d4" d="M168.844 222.968c3.354 3.432 7.418 2.308 7.418 2.308l44.997-22.173c5.76-3.926 4.951-8.798 4.951-8.798V61.898c0-5.82-5.958-7.831-5.958-7.831l-38.999-18.8c-8.522-5.267-14.105.947-14.105.947s7.18-5.168 10.692 4.616v175.075a8 8 0 0 1-.769 3.453c-1.026 2.071-3.255 4.004-8.601 3.195z" />
        </g>
    </symbol>

    <symbol id="devicon--trello" viewBox="0 0 128 128">
        <defs>
            <linearGradient id="deviconTrello0" x1="128" x2="128" y1="0" y2="256" gradientTransform="scale(.5)" gradientUnits="userSpaceOnUse">
                <stop offset="0" stop-color="#2684ff" />
                <stop offset="1" stop-color="#0052cc" />
            </linearGradient>
        </defs>
        <path fill="url(#deviconTrello0)" d="M12.5 0h103c6.925 0 12.5 5.575 12.5 12.5v103c0 6.925-5.575 12.5-12.5 12.5h-103C5.575 128 0 122.425 0 115.5v-103C0 5.575 5.575 0 12.5 0" />
        <path fill="#fff" d="M78.32 16.64h27.04c3.324 0 6 2.676 6 6v44c0 3.324-2.676 6-6 6H78.32c-3.324 0-6-2.676-6-6v-44c0-3.324 2.676-6 6-6m-55.68 0h27.04c3.324 0 6 2.676 6 6v76c0 3.324-2.676 6-6 6H22.64c-3.324 0-6-2.676-6-6v-76c0-3.324 2.676-6 6-6" />
    </symbol>

    <symbol id="emojione--flag-for-chile" viewBox="0 0 64 64">
        <path fill="#ed4c5c" d="M2 32c0 16.6 13.4 30 30 30s30-13.4 30-30z" />
        <path fill="#f9f9f9" d="M32 2c16.6 0 30 13.4 30 30H32z" />
        <path fill="#2a5f9e" d="M32 2C15.4 2 2 15.4 2 32h30z" />
        <path fill="#f9f9f9" d="m20 21.7l4.9 3.3l-1.8-5.3l4.9-3.5h-6.1L20 11l-1.8 5.2H12l4.9 3.5l-1.8 5.3z" />
    </symbol>

    <symbol id="emojione--flag-for-united-states" viewBox="0 0 64 64">
        <path fill="#ed4c5c" d="M48 6.6C43.3 3.7 37.9 2 32 2v4.6z" />
        <path fill="#fff" d="M32 11.2h21.6C51.9 9.5 50 7.9 48 6.6H32z" />
        <path fill="#ed4c5c" d="M32 15.8h25.3c-1.1-1.7-2.3-3.2-3.6-4.6H32z" />
        <path fill="#fff" d="M32 20.4h27.7c-.7-1.6-1.5-3.2-2.4-4.6H32z" />
        <path fill="#ed4c5c" d="M32 25h29.2c-.4-1.6-.9-3.1-1.5-4.6H32z" />
        <path fill="#fff" d="M32 29.7h29.9c-.1-1.6-.4-3.1-.7-4.6H32z" />
        <path fill="#ed4c5c" d="M61.9 29.7H32V32H2c0 .8 0 1.5.1 2.3h59.8c.1-.8.1-1.5.1-2.3s0-1.6-.1-2.3" />
        <path fill="#fff" d="M2.8 38.9h58.4c.4-1.5.6-3 .7-4.6H2.1c.1 1.5.3 3.1.7 4.6" />
        <path fill="#ed4c5c" d="M4.3 43.5h55.4c.6-1.5 1.1-3 1.5-4.6H2.8c.4 1.6.9 3.1 1.5 4.6" />
        <path fill="#fff" d="M6.7 48.1h50.6c.9-1.5 1.7-3 2.4-4.6H4.3c.7 1.6 1.5 3.1 2.4 4.6" />
        <path fill="#ed4c5c" d="M10.3 52.7h43.4c1.3-1.4 2.6-3 3.6-4.6H6.7c1 1.7 2.3 3.2 3.6 4.6" />
        <path fill="#fff" d="M15.9 57.3h32.2c2.1-1.3 3.9-2.9 5.6-4.6H10.3c1.7 1.8 3.6 3.3 5.6 4.6" />
        <path fill="#ed4c5c" d="M32 62c5.9 0 11.4-1.7 16.1-4.7H15.9c4.7 3 10.2 4.7 16.1 4.7" />
        <path fill="#428bc1" d="M16 6.6c-2.1 1.3-4 2.9-5.7 4.6c-1.4 1.4-2.6 3-3.6 4.6c-.9 1.5-1.8 3-2.4 4.6c-.6 1.5-1.1 3-1.5 4.6c-.4 1.5-.6 3-.7 4.6c-.1.8-.1 1.6-.1 2.4h30V2c-5.9 0-11.3 1.7-16 4.6" />
        <path fill="#fff" d="m25 3l.5 1.5H27l-1.2 1l.4 1.5l-1.2-.9l-1.2.9l.4-1.5l-1.2-1h1.5zm4 6l.5 1.5H31l-1.2 1l.4 1.5l-1.2-.9l-1.2.9l.4-1.5l-1.2-1h1.5zm-8 0l.5 1.5H23l-1.2 1l.4 1.5l-1.2-.9l-1.2.9l.4-1.5l-1.2-1h1.5zm4 6l.5 1.5H27l-1.2 1l.4 1.5l-1.2-.9l-1.2.9l.4-1.5l-1.2-1h1.5zm-8 0l.5 1.5H19l-1.2 1l.4 1.5l-1.2-.9l-1.2.9l.4-1.5l-1.2-1h1.5zm-8 0l.5 1.5H11l-1.2 1l.4 1.5l-1.2-.9l-1.2.9l.4-1.5l-1.2-1h1.5zm20 6l.5 1.5H31l-1.2 1l.4 1.5l-1.2-.9l-1.2.9l.4-1.5l-1.2-1h1.5zm-8 0l.5 1.5H23l-1.2 1l.4 1.5l-1.2-.9l-1.2.9l.4-1.5l-1.2-1h1.5zm-8 0l.5 1.5H15l-1.2 1l.4 1.5l-1.2-.9l-1.2.9l.4-1.5l-1.2-1h1.5zm12 6l.5 1.5H27l-1.2 1l.4 1.5l-1.2-.9l-1.2.9l.4-1.5l-1.2-1h1.5zm-8 0l.5 1.5H19l-1.2 1l.4 1.5l-1.2-.9l-1.2.9l.4-1.5l-1.2-1h1.5zm-8 0l.5 1.5H11l-1.2 1l.4 1.5l-1.2-.9l-1.2.9l.4-1.5l-1.2-1h1.5zm2.8-14l1.2-.9l1.2.9l-.5-1.5l1.2-1h-1.5L13 9l-.5 1.5h-1.4l1.2.9zm-8 12l1.2-.9l1.2.9l-.5-1.5l1.2-1H5.5L5 21l-.5 1.5h-1c0 .1-.1.2-.1.3l.8.6z" />
    </symbol>

    <symbol id="emojione--flag-for-japan" viewBox="0 0 64 64">
        <circle cx="32" cy="32" r="30" fill="#f5f5f5" />
        <circle cx="32" cy="32" r="12" fill="#ed4c5c" />
    </symbol>
    

</svg>